<svg height="16pt" viewBox="0 -101 436.90496 436" width="16pt" xmlns="http://www.w3.org/2000/svg"><path d="m218.453125 234.0625c-89.214844 0-172.503906-43.339844-217.371094-113.109375-1.441406-2.253906-1.441406-5.136719 0-7.386719 44.867188-69.773437 128.15625-113.113281 217.371094-113.113281 89.210937 0 172.503906 43.339844 217.367187 113.113281 1.445313 2.25 1.445313 5.132813 0 7.386719-44.863281 69.773437-128.15625 113.109375-217.367187 113.109375zm-203.453125-116.804688c42.914062 63.742188 120.425781 103.152344 203.453125 103.152344s160.535156-39.410156 203.453125-103.152344c-42.917969-63.738281-120.429688-103.152343-203.453125-103.152343-83.027344 0-160.535156 39.414062-203.453125 103.152343zm0 0"/><path d="m298.046875 222.097656c-1.984375 0-3.949219-.859375-5.300781-2.519531-2.378906-2.925781-1.9375-7.226563.992187-9.601563 28.078125-22.839843 44.179688-56.628906 44.179688-92.71875 0-36.085937-16.101563-69.878906-44.183594-92.71875-2.925781-2.375-3.371094-6.671874-.988281-9.601562 2.382812-2.917969 6.675781-3.367188 9.601562-.984375 31.285156 25.433594 49.226563 63.09375 49.226563 103.304687 0 40.214844-17.941407 77.875-49.226563 103.308594-1.265625 1.03125-2.789062 1.53125-4.300781 1.53125zm0 0"/><path d="m138.859375 222.097656c-1.515625 0-3.035156-.5-4.304687-1.53125-31.28125-25.433594-49.222657-63.09375-49.222657-103.308594 0-40.210937 17.941407-77.871093 49.222657-103.304687 2.933593-2.386719 7.226562-1.941406 9.605468.984375 2.378906 2.929688 1.9375 7.226562-.992187 9.601562-28.078125 22.839844-44.183594 56.632813-44.183594 92.71875 0 36.089844 16.105469 69.878907 44.183594 92.71875 2.929687 2.375 3.371093 6.675782.992187 9.601563-1.351562 1.660156-3.316406 2.519531-5.300781 2.519531zm0 0"/><path d="m218.453125 52.40625c-33.933594 0-61.441406 27.503906-61.441406 61.4375s27.507812 61.441406 61.441406 61.441406c33.929687 0 61.4375-27.507812 61.4375-61.441406s-27.507813-61.4375-61.4375-61.4375zm-20.480469 47.785156c-7.539062 0-13.652344-6.113281-13.652344-13.652344 0-7.539062 6.113282-13.652343 13.652344-13.652343 7.539063 0 13.652344 6.113281 13.652344 13.652343 0 7.539063-6.113281 13.652344-13.652344 13.652344zm0 0"/></svg>